<svg version="1.1" xmlns="http://www.w3.org/2000/svg" viewBox="0 0 570.19921875 530.28125" width="570.19921875" height="530.28125">
  <!-- svg-source:excalidraw -->
  
  <defs>
    <style class="style-fonts">
      @font-face { font-family: Excalifont; src: url(https://unpkg.com/@excalidraw/excalidraw/dist/prod/fonts/Excalifont/Excalifont-Regular-a88b72a24fb54c9f94e3b5fdaa7481c9.woff2); }
      @font-face { font-family: Comic Shanns; src: url(https://unpkg.com/@excalidraw/excalidraw/dist/prod/fonts/ComicShanns/ComicShanns-Regular-279a7b317d12eb88de06167bd672b4b4.woff2); }
    </style>
    
  </defs>
  <rect x="0" y="0" width="570.19921875" height="530.28125" fill="#ffffff"></rect><g stroke-linecap="round" transform="translate(330.890625 10) rotate(0 82.69921875 24.81640625)"><path d="M0 0 C67.02 -0.7, 130.91 0.19, 165.4 0 M0 0 C64.42 -0.14, 127.12 -0.93, 165.4 0 M165.4 0 C163.37 19.8, 164.93 37.42, 165.4 49.63 M165.4 0 C165.43 13.08, 165.44 25.41, 165.4 49.63 M165.4 49.63 C124.3 47.87, 87.18 48.59, 0 49.63 M165.4 49.63 C109.7 48.57, 52.3 49, 0 49.63 M0 49.63 C1.52 34.93, -0.6 24.42, 0 0 M0 49.63 C0.44 33.46, 0.47 15.73, 0 0" stroke="#1e1e1e" stroke-width="2" fill="none"></path></g><g transform="translate(366.5918655395508 17.31640625) rotate(0 46.99797821044922 17.5)"><text x="46.99797821044922" y="24.668" font-family="Excalifont, Xiaolai, Segoe UI Emoji" font-size="28px" fill="#1e1e1e" text-anchor="middle" style="white-space: pre;" direction="ltr" dominant-baseline="alphabetic">data-A</text></g><g stroke-linecap="round" transform="translate(331.6328125 108.21875) rotate(0 83.26171875 35.599609375)"><path d="M0 0 C56.39 -0.07, 116.78 -1.84, 166.52 0 M0 0 C34.81 2.4, 68.99 1.71, 166.52 0 M166.52 0 C166.85 19.39, 164.8 40.61, 166.52 71.2 M166.52 0 C167.01 26.6, 166.63 53.73, 166.52 71.2 M166.52 71.2 C128.56 68.02, 91.86 70.38, 0 71.2 M166.52 71.2 C114.07 73.04, 59.95 72.85, 0 71.2 M0 71.2 C0.45 46.08, 0.79 22.4, 0 0 M0 71.2 C0.06 53.26, 0.28 33.36, 0 0" stroke="#1e1e1e" stroke-width="2" fill="none"></path></g><g transform="translate(391.5985391139984 126.318359375) rotate(0 23.295992136001587 17.5)"><text x="23.295992136001587" y="24.668" font-family="Excalifont, Xiaolai, Segoe UI Emoji" font-size="28px" fill="#1e1e1e" text-anchor="middle" style="white-space: pre;" direction="ltr" dominant-baseline="alphabetic">......</text></g><g stroke-linecap="round" transform="translate(331.8203125 178.92578125) rotate(0 82.69921875 24.81640625)"><path d="M0 0 C39.08 1.31, 82.82 -1.21, 165.4 0 M0 0 C44.74 1.91, 88.74 1.03, 165.4 0 M165.4 0 C166.67 11.95, 167.02 25.18, 165.4 49.63 M165.4 0 C166.02 16.37, 165.49 31.01, 165.4 49.63 M165.4 49.63 C110.69 50.91, 52.58 48.89, 0 49.63 M165.4 49.63 C116.63 48.74, 66.95 49.66, 0 49.63 M0 49.63 C-0.82 28.76, -1.26 11.21, 0 0 M0 49.63 C1.36 37.29, 0.18 25.56, 0 0" stroke="#1e1e1e" stroke-width="2" fill="none"></path></g><g transform="translate(365.6455549001694 186.2421875) rotate(0 48.87397634983063 17.5)"><text x="48.87397634983063" y="24.668" font-family="Excalifont, Xiaolai, Segoe UI Emoji" font-size="28px" fill="#1e1e1e" text-anchor="middle" style="white-space: pre;" direction="ltr" dominant-baseline="alphabetic">data-B</text></g><g stroke-linecap="round" transform="translate(331.3203125 278.38671875) rotate(0 83.26171875 35.599609375)"><path d="M0 0 C61.48 0.47, 122.86 1.69, 166.52 0 M0 0 C62.2 0.95, 125.5 0.65, 166.52 0 M166.52 0 C167.36 20.67, 165 41.41, 166.52 71.2 M166.52 0 C166.86 24.73, 166.47 50.09, 166.52 71.2 M166.52 71.2 C105.37 71.3, 44.03 70.87, 0 71.2 M166.52 71.2 C127.49 72.45, 86.18 71.51, 0 71.2 M0 71.2 C-0.64 52.5, 0.87 38.82, 0 0 M0 71.2 C-0.43 49.17, -0.81 26.52, 0 0" stroke="#1e1e1e" stroke-width="2" fill="none"></path></g><g transform="translate(391.2860391139984 296.486328125) rotate(0 23.295992136001587 17.5)"><text x="23.295992136001587" y="24.668" font-family="Excalifont, Xiaolai, Segoe UI Emoji" font-size="28px" fill="#1e1e1e" text-anchor="middle" style="white-space: pre;" direction="ltr" dominant-baseline="alphabetic">......</text></g><g stroke-linecap="round" transform="translate(332.51171875 349.1953125) rotate(0 82.69921875 24.81640625)"><path d="M0 0 C44.06 -0.67, 83.51 -2.54, 165.4 0 M0 0 C35.09 -1.7, 68.92 -1.33, 165.4 0 M165.4 0 C166.25 18.85, 164.94 38.96, 165.4 49.63 M165.4 0 C164.76 14.42, 165.43 27.43, 165.4 49.63 M165.4 49.63 C121.65 50.16, 80.33 51.69, 0 49.63 M165.4 49.63 C113.78 50.51, 60.87 50.36, 0 49.63 M0 49.63 C-2.04 34.91, -1.48 18.29, 0 0 M0 49.63 C0.04 34.13, -0.37 17.22, 0 0" stroke="#1e1e1e" stroke-width="2" fill="none"></path></g><g transform="translate(368.3109588623047 356.51171875) rotate(0 46.89997863769531 17.5)"><text x="46.89997863769531" y="24.668" font-family="Excalifont, Xiaolai, Segoe UI Emoji" font-size="28px" fill="#1e1e1e" text-anchor="middle" style="white-space: pre;" direction="ltr" dominant-baseline="alphabetic">data-C</text></g><g stroke-linecap="round" transform="translate(332.36328125 447.6640625) rotate(0 83.26171875 35.599609375)"><path d="M0 0 C52.76 2.65, 111.14 3.02, 166.52 0 M0 0 C48.19 -0.91, 94.26 0.21, 166.52 0 M166.52 0 C165.98 19.01, 166.43 39.96, 166.52 71.2 M166.52 0 C166.32 27.17, 167.19 52.36, 166.52 71.2 M166.52 71.2 C118.28 72.02, 69.94 74.09, 0 71.2 M166.52 71.2 C110.69 72.46, 54.23 70.77, 0 71.2 M0 71.2 C0.76 43.79, -0.46 16.72, 0 0 M0 71.2 C-0.41 47.31, -0.23 23.84, 0 0" stroke="#1e1e1e" stroke-width="2" fill="none"></path></g><g transform="translate(392.3290078639984 465.763671875) rotate(0 23.295992136001587 17.5)"><text x="23.295992136001587" y="24.668" font-family="Excalifont, Xiaolai, Segoe UI Emoji" font-size="28px" fill="#1e1e1e" text-anchor="middle" style="white-space: pre;" direction="ltr" dominant-baseline="alphabetic">......</text></g><g stroke-linecap="round" transform="translate(332.80078125 399.20703125) rotate(0 82.69921875 24.81640625)"><path d="M0 0 C66.75 1.07, 131.2 -1.1, 165.4 0 M0 0 C65.52 -0.49, 130.56 -1.64, 165.4 0 M165.4 0 C166.18 19.99, 165.12 38.46, 165.4 49.63 M165.4 0 C166.48 17.82, 165.33 35.87, 165.4 49.63 M165.4 49.63 C104.3 48.35, 43.76 49.83, 0 49.63 M165.4 49.63 C117.36 49.98, 68.49 49.77, 0 49.63 M0 49.63 C-2.38 35.38, 1.34 19.71, 0 0 M0 49.63 C-0.03 36.84, -0.33 23.53, 0 0" stroke="#1e1e1e" stroke-width="2" fill="none"></path></g><g transform="translate(377.4200134277344 406.5234375) rotate(0 38.079986572265625 17.5)"><text x="38.079986572265625" y="24.668" font-family="Excalifont, Xiaolai, Segoe UI Emoji" font-size="28px" fill="#1e1e1e" text-anchor="middle" style="white-space: pre;" direction="ltr" dominant-baseline="alphabetic">pos-C</text></g><g stroke-linecap="round" transform="translate(332.15625 228.62109375) rotate(0 82.69921875 24.81640625)"><path d="M0 0 C43.3 1.39, 83.77 0.78, 165.4 0 M0 0 C66.31 -1.19, 131.35 -0.69, 165.4 0 M165.4 0 C164.31 14.97, 167.3 25.72, 165.4 49.63 M165.4 0 C165.82 10.41, 164.96 20.17, 165.4 49.63 M165.4 49.63 C117.83 50.84, 66.46 51.66, 0 49.63 M165.4 49.63 C109 48.83, 53.46 48.44, 0 49.63 M0 49.63 C-1.47 35.23, -1.29 20.11, 0 0 M0 49.63 C-1 40.07, -1.23 27.83, 0 0" stroke="#1e1e1e" stroke-width="2" fill="none"></path></g><g transform="translate(374.6054844856262 235.9375) rotate(0 40.24998426437378 17.5)"><text x="40.24998426437378" y="24.668" font-family="Excalifont, Xiaolai, Segoe UI Emoji" font-size="28px" fill="#1e1e1e" text-anchor="middle" style="white-space: pre;" direction="ltr" dominant-baseline="alphabetic">pos-B</text></g><g stroke-linecap="round" transform="translate(331.46484375 58.84375) rotate(0 82.69921875 24.81640625)"><path d="M0 0 C47.94 -1.32, 96.86 -1.48, 165.4 0 M0 0 C35.46 0.28, 71.02 1.24, 165.4 0 M165.4 0 C165.83 17.44, 166.56 34.8, 165.4 49.63 M165.4 0 C165.59 16.68, 165.73 33.49, 165.4 49.63 M165.4 49.63 C109.63 48.18, 51.98 47.35, 0 49.63 M165.4 49.63 C105.41 49.54, 45.81 49.96, 0 49.63 M0 49.63 C1.29 38.33, -0.91 28.18, 0 0 M0 49.63 C0.85 37.17, -0.02 23.87, 0 0" stroke="#1e1e1e" stroke-width="2" fill="none"></path></g><g transform="translate(375.8320736885071 66.16015625) rotate(0 38.33198881149292 17.5)"><text x="38.33198881149292" y="24.668" font-family="Excalifont, Xiaolai, Segoe UI Emoji" font-size="28px" fill="#1e1e1e" text-anchor="middle" style="white-space: pre;" direction="ltr" dominant-baseline="alphabetic">pos-A</text></g><g mask="url(#mask-yWtUJ7QpcrCB0Gj9Ddvkd)" stroke-linecap="round"><g transform="translate(501.86328125 83.56015625) rotate(0 17.845703125 78.51171874999999)"><path d="M0 0 C6.94 0.64, 14 1.16, 19.69 0 M0 0 C7.54 0.34, 13.76 0.34, 19.69 0 M19.69 0 C30.85 0.16, 33.81 3.56, 35.69 16 M19.69 0 C30.94 1.77, 37.12 3.87, 35.69 16 M35.69 16 C35.89 52.17, 35.24 93.13, 35.69 141.02 M35.69 16 C35.15 49.63, 34.19 82.27, 35.69 141.02 M35.69 141.02 C36.13 149.96, 29.13 157.66, 19.69 157.02 M35.69 141.02 C33.97 152.22, 28.45 156.25, 19.69 157.02 M19.69 157.02 C13.56 158.24, 9.87 157.64, 0.69 157.02 M19.69 157.02 C14.59 157.88, 7.36 156.5, 0.69 157.02" stroke="#1e1e1e" stroke-width="1" fill="none"></path></g><g transform="translate(501.86328125 83.56015625) rotate(0 17.845703125 78.51171874999999)"><path d="M17.07 150.85 C12.15 153.74, 7.37 156.22, 0.69 157.02 M17.07 150.85 C12.28 153.49, 6.33 155.58, 0.69 157.02" stroke="#1e1e1e" stroke-width="1" fill="none"></path></g><g transform="translate(501.86328125 83.56015625) rotate(0 17.845703125 78.51171874999999)"><path d="M17.2 162.82 C12.3 161.8, 7.48 160.38, 0.69 157.02 M17.2 162.82 C12.37 161.4, 6.37 159.43, 0.69 157.02" stroke="#1e1e1e" stroke-width="1" fill="none"></path></g></g><mask id="mask-yWtUJ7QpcrCB0Gj9Ddvkd"><rect x="0" y="0" fill="#fff" width="637.5546875" height="340.58359375"></rect><rect x="515.5546875" y="149.57187499999995" fill="#000" width="44" height="25" opacity="1"></rect></mask><g transform="translate(515.5546875 149.57187499999998) rotate(0 4.256369883051548 12.851918346461744)"><text x="22" y="17.5" font-family="Comic Shanns, Segoe UI Emoji" font-size="20px" fill="#1e1e1e" text-anchor="middle" style="white-space: pre;" direction="ltr" dominant-baseline="alphabetic">next</text></g><g mask="url(#mask-rI57TmBgXKzY10Uo5Rwqk)" stroke-linecap="round"><g transform="translate(502.5546875 261.44921875) rotate(0 17.822265625 81.23710937499999)"><path d="M0 0 C2.19 1.19, 9.57 0.42, 19.64 0 M0 0 C6.06 -0.84, 12.51 0.72, 19.64 0 M19.64 0 C31.78 1.69, 35.65 6.44, 35.64 16 M19.64 0 C31.28 0.17, 35.99 4.92, 35.64 16 M35.64 16 C35.44 42.78, 36.13 69.22, 35.64 146.47 M35.64 16 C34.95 64.58, 34.56 111.17, 35.64 146.47 M35.64 146.47 C34.82 155.52, 29.53 160.93, 19.64 162.47 M35.64 146.47 C35.09 158.43, 28.5 164.38, 19.64 162.47 M19.64 162.47 C14.64 162.18, 7.62 163.21, 0.64 162.47 M19.64 162.47 C12.81 163.35, 5.49 161.85, 0.64 162.47" stroke="#1e1e1e" stroke-width="1" fill="none"></path></g><g transform="translate(502.5546875 261.44921875) rotate(0 17.822265625 81.23710937499999)"><path d="M16.95 156.12 C12.06 158.29, 11.82 158.88, 0.64 162.47 M16.95 156.12 C10.95 157.76, 5.36 161.28, 0.64 162.47" stroke="#1e1e1e" stroke-width="1" fill="none"></path></g><g transform="translate(502.5546875 261.44921875) rotate(0 17.822265625 81.23710937499999)"><path d="M17.22 168.09 C12.34 167.85, 12.05 166.02, 0.64 162.47 M17.22 168.09 C11.24 165.72, 5.57 165.22, 0.64 162.47" stroke="#1e1e1e" stroke-width="1" fill="none"></path></g></g><mask id="mask-rI57TmBgXKzY10Uo5Rwqk"><rect x="0" y="0" fill="#fff" width="638.19921875" height="523.9234375"></rect><rect x="516.19921875" y="330.18632812500005" fill="#000" width="44" height="25" opacity="1"></rect></mask><g transform="translate(516.19921875 330.186328125) rotate(0 4.2670597523551805 12.54695672368561)"><text x="22" y="17.5" font-family="Comic Shanns, Segoe UI Emoji" font-size="20px" fill="#1e1e1e" text-anchor="middle" style="white-space: pre;" direction="ltr" dominant-baseline="alphabetic">next</text></g><g stroke-linecap="round" transform="translate(10 191.99609375) rotate(0 92.291015625 40)"><path d="M20 0 C73.06 2.07, 131.3 -0.96, 164.58 0 M20 0 C57.78 -1.79, 93.88 -1.33, 164.58 0 M164.58 0 C179.83 -1.72, 184.09 8.13, 184.58 20 M164.58 0 C178.22 2.21, 185.7 4.9, 184.58 20 M184.58 20 C185.69 28.75, 184.02 39.35, 184.58 60 M184.58 20 C185.46 31.14, 184.23 43.69, 184.58 60 M184.58 60 C186.31 73.49, 178.98 79.83, 164.58 80 M184.58 60 C186.61 73.21, 177.74 79.93, 164.58 80 M164.58 80 C118.82 81.58, 76 80.76, 20 80 M164.58 80 C134.62 80.59, 105.1 81.43, 20 80 M20 80 C6.72 79.35, -0.49 73.61, 0 60 M20 80 C6.9 80.44, 0.21 71.32, 0 60 M0 60 C-0.8 46.54, 1.82 32.86, 0 20 M0 60 C0.6 49.83, -0.53 41.57, 0 20 M0 20 C-1.42 6.35, 6.17 1.44, 20 0 M0 20 C0.16 5.41, 8.24 2.12, 20 0" stroke="#1e1e1e" stroke-width="1" fill="none"></path></g><g transform="translate(41.153045654296875 196.99609375) rotate(0 61.137969970703125 35)"><text x="61.137969970703125" y="24.668" font-family="Excalifont, Xiaolai, Segoe UI Emoji" font-size="28px" fill="#1e1e1e" text-anchor="middle" style="white-space: pre;" direction="ltr" dominant-baseline="alphabetic">pos-</text><text x="61.137969970703125" y="59.668" font-family="Excalifont, Xiaolai, Segoe UI Emoji" font-size="28px" fill="#1e1e1e" text-anchor="middle" style="white-space: pre;" direction="ltr" dominant-baseline="alphabetic">sentinelA</text></g><g mask="url(#mask-Qy-hrfrtXjOTbUwH8d_7d)" stroke-linecap="round"><g transform="translate(102.19101562499998 186.99609375) rotate(0 112.13691406250001 -54.701171875)"><path d="M0 0 C0.42 -23.81, 0.49 -42.92, 0 -93.4 M0 0 C-1.3 -30.74, -0.6 -61.53, 0 -93.4 M0 -93.4 C0.58 -102.53, 7.14 -110, 16 -109.4 M0 -93.4 C-0.5 -103.5, 3.4 -110.7, 16 -109.4 M16 -109.4 C91.26 -110.14, 166.52 -110.8, 224.27 -109.4 M16 -109.4 C70.47 -111.84, 124.36 -110.32, 224.27 -109.4" stroke="#1e1e1e" stroke-width="1" fill="none"></path></g><g transform="translate(102.19101562499998 186.99609375) rotate(0 112.13691406250001 -54.701171875)"><path d="M200.69 -101.11 C207.11 -104.79, 212.82 -103.55, 224.27 -109.4 M200.69 -101.11 C207.78 -104.05, 216.14 -107.19, 224.27 -109.4" stroke="#1e1e1e" stroke-width="1" fill="none"></path></g><g transform="translate(102.19101562499998 186.99609375) rotate(0 112.13691406250001 -54.701171875)"><path d="M200.88 -118.21 C207.32 -117.8, 213 -112.47, 224.27 -109.4 M200.88 -118.21 C208.05 -115.59, 216.35 -113.18, 224.27 -109.4" stroke="#1e1e1e" stroke-width="1" fill="none"></path></g></g><mask id="mask-Qy-hrfrtXjOTbUwH8d_7d"><rect x="0" y="0" fill="#fff" width="426.46484375" height="396.3984375"></rect><rect x="80.19101562499998" y="65.09375" fill="#000" width="44" height="25" opacity="1"></rect></mask><g transform="translate(80.19101562499998 65.09375) rotate(0 133.76863997513937 66.5428438171536)"><text x="22" y="17.5" font-family="Comic Shanns, Segoe UI Emoji" font-size="20px" fill="#1e1e1e" text-anchor="middle" style="white-space: pre;" direction="ltr" dominant-baseline="alphabetic">next</text></g><g mask="url(#mask-zRyx-VIF21edgSQNNTgOS)" stroke-linecap="round"><g transform="translate(327.80078125 410.4234375) rotate(0 -112.80488281250001 -66.71367187499999)"><path d="M0 0 C-75.01 0.92, -150.33 -0.75, -209.61 0 M0 0 C-66.47 -0.8, -131.07 -1.17, -209.61 0 M-209.61 0 C-219.53 0.11, -226.8 -6.11, -225.61 -16 M-209.61 0 C-220.57 0.27, -225.4 -5.2, -225.61 -16 M-225.61 -16 C-225.45 -41.53, -225.61 -64.38, -225.61 -133.43 M-225.61 -16 C-225.16 -62.1, -226.39 -107.47, -225.61 -133.43" stroke="#1e1e1e" stroke-width="1" fill="none"></path></g><g transform="translate(327.80078125 410.4234375) rotate(0 -112.80488281250001 -66.71367187499999)"><path d="M-217.28 -109.86 C-220.54 -116.88, -224.33 -127.17, -225.61 -133.43 M-217.28 -109.86 C-220.63 -117.59, -221.99 -125.39, -225.61 -133.43" stroke="#1e1e1e" stroke-width="1" fill="none"></path></g><g transform="translate(327.80078125 410.4234375) rotate(0 -112.80488281250001 -66.71367187499999)"><path d="M-234.38 -110.02 C-231.55 -116.96, -229.27 -127.18, -225.61 -133.43 M-234.38 -110.02 C-232.37 -117.65, -228.37 -125.4, -225.61 -133.43" stroke="#1e1e1e" stroke-width="1" fill="none"></path></g></g><mask id="mask-zRyx-VIF21edgSQNNTgOS"><rect x="0" y="0" fill="#fff" width="653.410546875" height="643.85078125"></rect><rect x="80.19101562500009" y="397.9234375" fill="#000" width="44" height="25" opacity="1"></rect></mask><g transform="translate(80.19101562499998 397.9234375) rotate(0 134.67058209140646 -54.07049331928994)"><text x="22" y="17.5" font-family="Comic Shanns, Segoe UI Emoji" font-size="20px" fill="#1e1e1e" text-anchor="middle" style="white-space: pre;" direction="ltr" dominant-baseline="alphabetic">next</text></g><g stroke-linecap="round" transform="translate(13.279296875 440.28125) rotate(0 92.291015625 40)"><path d="M20 0 C52.97 2.49, 85.56 0.69, 164.58 0 M20 0 C75.6 0.1, 131.53 -0.4, 164.58 0 M164.58 0 C176.33 0.23, 184.36 6.34, 184.58 20 M164.58 0 C179.11 -1.46, 184.29 5.14, 184.58 20 M184.58 20 C184.37 34.47, 185.07 47.12, 184.58 60 M184.58 20 C183.43 35.46, 184.52 51.53, 184.58 60 M184.58 60 C183.08 72.25, 176.17 78.25, 164.58 80 M184.58 60 C185.84 72.74, 176.2 80.5, 164.58 80 M164.58 80 C124.65 81.17, 84.39 80.5, 20 80 M164.58 80 C132.34 80.24, 101.47 80.82, 20 80 M20 80 C5.99 80.95, 1.08 75, 0 60 M20 80 C8.03 80.77, -0.88 74.64, 0 60 M0 60 C-1.5 47.2, 1.66 33.04, 0 20 M0 60 C-0.49 50.71, -0.4 40.33, 0 20 M0 20 C0.82 6.95, 5.82 1.66, 20 0 M0 20 C1.39 5.23, 5.38 -1.28, 20 0" stroke="#1e1e1e" stroke-width="1" fill="none"></path></g><g transform="translate(43.130341947078705 445.28125) rotate(0 62.439970552921295 35)"><text x="62.439970552921295" y="24.668" font-family="Excalifont, Xiaolai, Segoe UI Emoji" font-size="28px" fill="#1e1e1e" text-anchor="middle" style="white-space: pre;" direction="ltr" dominant-baseline="alphabetic">pos-</text><text x="62.439970552921295" y="59.668" font-family="Excalifont, Xiaolai, Segoe UI Emoji" font-size="28px" fill="#1e1e1e" text-anchor="middle" style="white-space: pre;" direction="ltr" dominant-baseline="alphabetic">sentinelB</text></g><g mask="url(#mask-Q7sTjvwVFq2u--7EWvOAR)" stroke-linecap="round"><g transform="translate(202.861328125 485.98046875) rotate(0 62.4697265625 -25.607421875)"><path d="M0 0 C9.9 -1.56, 18.99 0.78, 46.47 0 M0 0 C9.83 1.31, 21.41 0.31, 46.47 0 M46.47 0 C55.56 -0.14, 64.05 -6.42, 62.47 -16 M46.47 0 C54.95 0.57, 62.19 -6.92, 62.47 -16 M62.47 -16 C63.5 -21.45, 61.35 -22.82, 62.47 -35.21 M62.47 -16 C63.17 -23.94, 61.91 -29.74, 62.47 -35.21 M62.47 -35.21 C62.81 -46.53, 68.46 -50.26, 78.47 -51.21 M62.47 -35.21 C60.41 -46.72, 66.08 -52.79, 78.47 -51.21 M78.47 -51.21 C92.08 -52.06, 102.6 -52, 124.94 -51.21 M78.47 -51.21 C93.28 -51.97, 109.33 -52.51, 124.94 -51.21" stroke="#1e1e1e" stroke-width="1" fill="none"></path></g><g transform="translate(202.861328125 485.98046875) rotate(0 62.4697265625 -25.607421875)"><path d="M101.05 -43.86 C106.4 -46.85, 110.9 -46.01, 124.94 -51.21 M101.05 -43.86 C105.89 -44.4, 112.45 -47.03, 124.94 -51.21" stroke="#1e1e1e" stroke-width="1" fill="none"></path></g><g transform="translate(202.861328125 485.98046875) rotate(0 62.4697265625 -25.607421875)"><path d="M101.91 -60.94 C107.01 -60.46, 111.34 -56.15, 124.94 -51.21 M101.91 -60.94 C106.49 -57.69, 112.86 -56.52, 124.94 -51.21" stroke="#1e1e1e" stroke-width="1" fill="none"></path></g></g><mask id="mask-Q7sTjvwVFq2u--7EWvOAR"><rect x="0" y="0" fill="#fff" width="427.80078125" height="637.1953125"></rect><rect x="243.3310546875" y="447.873046875" fill="#000" width="44" height="25" opacity="1"></rect></mask><g transform="translate(243.3310546875 447.873046875) rotate(0 22 12.438657520268976)"><text x="22" y="17.5" font-family="Comic Shanns, Segoe UI Emoji" font-size="20px" fill="#1e1e1e" text-anchor="middle" style="white-space: pre;" direction="ltr" dominant-baseline="alphabetic">next</text></g></svg>