<svg version="1.1" xmlns="http://www.w3.org/2000/svg" viewBox="0 0 630.15625 528.86328125" width="630.15625" height="528.86328125">
  <!-- svg-source:excalidraw -->
  
  <defs>
    <style class="style-fonts">
      @font-face { font-family: Excalifont; src: url(https://unpkg.com/@excalidraw/excalidraw/dist/prod/fonts/Excalifont/Excalifont-Regular-a88b72a24fb54c9f94e3b5fdaa7481c9.woff2); }
      @font-face { font-family: Comic Shanns; src: url(https://unpkg.com/@excalidraw/excalidraw/dist/prod/fonts/ComicShanns/ComicShanns-Regular-279a7b317d12eb88de06167bd672b4b4.woff2); }
    </style>
    
  </defs>
  <rect x="0" y="0" width="630.15625" height="528.86328125" fill="#ffffff"></rect><g stroke-linecap="round" transform="translate(390.84765625 10) rotate(0 82.69921875 24.81640625)"><path d="M0 0 C67.02 -0.7, 130.91 0.19, 165.4 0 M0 0 C64.42 -0.14, 127.12 -0.93, 165.4 0 M165.4 0 C163.37 19.8, 164.93 37.42, 165.4 49.63 M165.4 0 C165.43 13.08, 165.44 25.41, 165.4 49.63 M165.4 49.63 C124.3 47.87, 87.18 48.59, 0 49.63 M165.4 49.63 C109.7 48.57, 52.3 49, 0 49.63 M0 49.63 C1.52 34.93, -0.6 24.42, 0 0 M0 49.63 C0.44 33.46, 0.47 15.73, 0 0" stroke="#1e1e1e" stroke-width="2" fill="none"></path></g><g transform="translate(426.5488967895508 17.31640625) rotate(0 46.99797821044922 17.5)"><text x="46.99797821044922" y="24.668" font-family="Excalifont, Xiaolai, Segoe UI Emoji" font-size="28px" fill="#1e1e1e" text-anchor="middle" style="white-space: pre;" direction="ltr" dominant-baseline="alphabetic">data-A</text></g><g stroke-linecap="round" transform="translate(391.58984375 108.21875) rotate(0 83.26171875 35.599609375)"><path d="M0 0 C56.39 -0.07, 116.78 -1.84, 166.52 0 M0 0 C34.81 2.4, 68.99 1.71, 166.52 0 M166.52 0 C166.85 19.39, 164.8 40.61, 166.52 71.2 M166.52 0 C167.01 26.6, 166.63 53.73, 166.52 71.2 M166.52 71.2 C128.56 68.02, 91.86 70.38, 0 71.2 M166.52 71.2 C114.07 73.04, 59.95 72.85, 0 71.2 M0 71.2 C0.45 46.08, 0.79 22.4, 0 0 M0 71.2 C0.06 53.26, 0.28 33.36, 0 0" stroke="#1e1e1e" stroke-width="2" fill="none"></path></g><g transform="translate(451.5555703639984 126.318359375) rotate(0 23.295992136001587 17.5)"><text x="23.295992136001587" y="24.668" font-family="Excalifont, Xiaolai, Segoe UI Emoji" font-size="28px" fill="#1e1e1e" text-anchor="middle" style="white-space: pre;" direction="ltr" dominant-baseline="alphabetic">......</text></g><g stroke-linecap="round" transform="translate(391.77734375 178.92578125) rotate(0 82.69921875 24.81640625)"><path d="M0 0 C39.08 1.31, 82.82 -1.21, 165.4 0 M0 0 C44.74 1.91, 88.74 1.03, 165.4 0 M165.4 0 C166.67 11.95, 167.02 25.18, 165.4 49.63 M165.4 0 C166.02 16.37, 165.49 31.01, 165.4 49.63 M165.4 49.63 C110.69 50.91, 52.58 48.89, 0 49.63 M165.4 49.63 C116.63 48.74, 66.95 49.66, 0 49.63 M0 49.63 C-0.82 28.76, -1.26 11.21, 0 0 M0 49.63 C1.36 37.29, 0.18 25.56, 0 0" stroke="#1e1e1e" stroke-width="2" fill="none"></path></g><g transform="translate(425.6025861501694 186.2421875) rotate(0 48.87397634983063 17.5)"><text x="48.87397634983063" y="24.668" font-family="Excalifont, Xiaolai, Segoe UI Emoji" font-size="28px" fill="#1e1e1e" text-anchor="middle" style="white-space: pre;" direction="ltr" dominant-baseline="alphabetic">data-B</text></g><g stroke-linecap="round" transform="translate(391.27734375 278.38671875) rotate(0 83.26171875 35.599609375)"><path d="M0 0 C61.48 0.47, 122.86 1.69, 166.52 0 M0 0 C62.2 0.95, 125.5 0.65, 166.52 0 M166.52 0 C167.36 20.67, 165 41.41, 166.52 71.2 M166.52 0 C166.86 24.73, 166.47 50.09, 166.52 71.2 M166.52 71.2 C105.37 71.3, 44.03 70.87, 0 71.2 M166.52 71.2 C127.49 72.45, 86.18 71.51, 0 71.2 M0 71.2 C-0.64 52.5, 0.87 38.82, 0 0 M0 71.2 C-0.43 49.17, -0.81 26.52, 0 0" stroke="#1e1e1e" stroke-width="2" fill="none"></path></g><g transform="translate(451.2430703639984 296.486328125) rotate(0 23.295992136001587 17.5)"><text x="23.295992136001587" y="24.668" font-family="Excalifont, Xiaolai, Segoe UI Emoji" font-size="28px" fill="#1e1e1e" text-anchor="middle" style="white-space: pre;" direction="ltr" dominant-baseline="alphabetic">......</text></g><g stroke-linecap="round" transform="translate(392.46875 349.1953125) rotate(0 82.69921875 24.81640625)"><path d="M0 0 C44.06 -0.67, 83.51 -2.54, 165.4 0 M0 0 C35.09 -1.7, 68.92 -1.33, 165.4 0 M165.4 0 C166.25 18.85, 164.94 38.96, 165.4 49.63 M165.4 0 C164.76 14.42, 165.43 27.43, 165.4 49.63 M165.4 49.63 C121.65 50.16, 80.33 51.69, 0 49.63 M165.4 49.63 C113.78 50.51, 60.87 50.36, 0 49.63 M0 49.63 C-2.04 34.91, -1.48 18.29, 0 0 M0 49.63 C0.04 34.13, -0.37 17.22, 0 0" stroke="#1e1e1e" stroke-width="2" fill="none"></path></g><g transform="translate(428.2679901123047 356.51171875) rotate(0 46.89997863769531 17.5)"><text x="46.89997863769531" y="24.668" font-family="Excalifont, Xiaolai, Segoe UI Emoji" font-size="28px" fill="#1e1e1e" text-anchor="middle" style="white-space: pre;" direction="ltr" dominant-baseline="alphabetic">data-C</text></g><g stroke-linecap="round" transform="translate(392.3203125 447.6640625) rotate(0 83.26171875 35.599609375)"><path d="M0 0 C52.76 2.65, 111.14 3.02, 166.52 0 M0 0 C48.19 -0.91, 94.26 0.21, 166.52 0 M166.52 0 C165.98 19.01, 166.43 39.96, 166.52 71.2 M166.52 0 C166.32 27.17, 167.19 52.36, 166.52 71.2 M166.52 71.2 C118.28 72.02, 69.94 74.09, 0 71.2 M166.52 71.2 C110.69 72.46, 54.23 70.77, 0 71.2 M0 71.2 C0.76 43.79, -0.46 16.72, 0 0 M0 71.2 C-0.41 47.31, -0.23 23.84, 0 0" stroke="#1e1e1e" stroke-width="2" fill="none"></path></g><g transform="translate(452.2860391139984 465.763671875) rotate(0 23.295992136001587 17.5)"><text x="23.295992136001587" y="24.668" font-family="Excalifont, Xiaolai, Segoe UI Emoji" font-size="28px" fill="#1e1e1e" text-anchor="middle" style="white-space: pre;" direction="ltr" dominant-baseline="alphabetic">......</text></g><g stroke-linecap="round" transform="translate(392.7578125 399.20703125) rotate(0 82.69921875 24.81640625)"><path d="M0 0 C66.75 1.07, 131.2 -1.1, 165.4 0 M0 0 C65.52 -0.49, 130.56 -1.64, 165.4 0 M165.4 0 C166.18 19.99, 165.12 38.46, 165.4 49.63 M165.4 0 C166.48 17.82, 165.33 35.87, 165.4 49.63 M165.4 49.63 C104.3 48.35, 43.76 49.83, 0 49.63 M165.4 49.63 C117.36 49.98, 68.49 49.77, 0 49.63 M0 49.63 C-2.38 35.38, 1.34 19.71, 0 0 M0 49.63 C-0.03 36.84, -0.33 23.53, 0 0" stroke="#1e1e1e" stroke-width="2" fill="none"></path></g><g transform="translate(437.3770446777344 406.5234375) rotate(0 38.079986572265625 17.5)"><text x="38.079986572265625" y="24.668" font-family="Excalifont, Xiaolai, Segoe UI Emoji" font-size="28px" fill="#1e1e1e" text-anchor="middle" style="white-space: pre;" direction="ltr" dominant-baseline="alphabetic">pos-C</text></g><g stroke-linecap="round" transform="translate(392.11328125 228.62109375) rotate(0 82.69921875 24.81640625)"><path d="M0 0 C43.3 1.39, 83.77 0.78, 165.4 0 M0 0 C66.31 -1.19, 131.35 -0.69, 165.4 0 M165.4 0 C164.31 14.97, 167.3 25.72, 165.4 49.63 M165.4 0 C165.82 10.41, 164.96 20.17, 165.4 49.63 M165.4 49.63 C117.83 50.84, 66.46 51.66, 0 49.63 M165.4 49.63 C109 48.83, 53.46 48.44, 0 49.63 M0 49.63 C-1.47 35.23, -1.29 20.11, 0 0 M0 49.63 C-1 40.07, -1.23 27.83, 0 0" stroke="#1e1e1e" stroke-width="2" fill="none"></path></g><g transform="translate(434.5625157356262 235.9375) rotate(0 40.24998426437378 17.5)"><text x="40.24998426437378" y="24.668" font-family="Excalifont, Xiaolai, Segoe UI Emoji" font-size="28px" fill="#1e1e1e" text-anchor="middle" style="white-space: pre;" direction="ltr" dominant-baseline="alphabetic">pos-B</text></g><g stroke-linecap="round" transform="translate(391.421875 58.84375) rotate(0 82.69921875 24.81640625)"><path d="M0 0 C47.94 -1.32, 96.86 -1.48, 165.4 0 M0 0 C35.46 0.28, 71.02 1.24, 165.4 0 M165.4 0 C165.83 17.44, 166.56 34.8, 165.4 49.63 M165.4 0 C165.59 16.68, 165.73 33.49, 165.4 49.63 M165.4 49.63 C109.63 48.18, 51.98 47.35, 0 49.63 M165.4 49.63 C105.41 49.54, 45.81 49.96, 0 49.63 M0 49.63 C1.29 38.33, -0.91 28.18, 0 0 M0 49.63 C0.85 37.17, -0.02 23.87, 0 0" stroke="#1e1e1e" stroke-width="2" fill="none"></path></g><g transform="translate(435.7891049385071 66.16015625) rotate(0 38.33198881149292 17.5)"><text x="38.33198881149292" y="24.668" font-family="Excalifont, Xiaolai, Segoe UI Emoji" font-size="28px" fill="#1e1e1e" text-anchor="middle" style="white-space: pre;" direction="ltr" dominant-baseline="alphabetic">pos-A</text></g><g mask="url(#mask-yWtUJ7QpcrCB0Gj9Ddvkd)" stroke-linecap="round"><g transform="translate(561.8203125 83.56015625) rotate(0 17.845703125 78.51171874999999)"><path d="M0 0 C6.94 0.64, 14 1.16, 19.69 0 M0 0 C7.54 0.34, 13.76 0.34, 19.69 0 M19.69 0 C30.85 0.16, 33.81 3.56, 35.69 16 M19.69 0 C30.94 1.77, 37.12 3.87, 35.69 16 M35.69 16 C35.89 52.17, 35.24 93.13, 35.69 141.02 M35.69 16 C35.15 49.63, 34.19 82.27, 35.69 141.02 M35.69 141.02 C36.13 149.96, 29.13 157.66, 19.69 157.02 M35.69 141.02 C33.97 152.22, 28.45 156.25, 19.69 157.02 M19.69 157.02 C13.56 158.24, 9.87 157.64, 0.69 157.02 M19.69 157.02 C14.59 157.88, 7.36 156.5, 0.69 157.02" stroke="#1e1e1e" stroke-width="1" fill="none"></path></g><g transform="translate(561.8203125 83.56015625) rotate(0 17.845703125 78.51171874999999)"><path d="M17.07 150.85 C12.15 153.74, 7.37 156.22, 0.69 157.02 M17.07 150.85 C12.28 153.49, 6.33 155.58, 0.69 157.02" stroke="#1e1e1e" stroke-width="1" fill="none"></path></g><g transform="translate(561.8203125 83.56015625) rotate(0 17.845703125 78.51171874999999)"><path d="M17.2 162.82 C12.3 161.8, 7.48 160.38, 0.69 157.02 M17.2 162.82 C12.37 161.4, 6.37 159.43, 0.69 157.02" stroke="#1e1e1e" stroke-width="1" fill="none"></path></g></g><mask id="mask-yWtUJ7QpcrCB0Gj9Ddvkd"><rect x="0" y="0" fill="#fff" width="697.51171875" height="340.58359375"></rect><rect x="575.51171875" y="149.57187499999995" fill="#000" width="44" height="25" opacity="1"></rect></mask><g transform="translate(575.51171875 149.57187499999998) rotate(0 4.256369883051548 12.851918346461744)"><text x="22" y="17.5" font-family="Comic Shanns, Segoe UI Emoji" font-size="20px" fill="#1e1e1e" text-anchor="middle" style="white-space: pre;" direction="ltr" dominant-baseline="alphabetic">next</text></g><g mask="url(#mask-rI57TmBgXKzY10Uo5Rwqk)" stroke-linecap="round"><g transform="translate(562.51171875 261.44921875) rotate(0 17.822265625 81.23710937499999)"><path d="M0 0 C2.19 1.19, 9.57 0.42, 19.64 0 M0 0 C6.06 -0.84, 12.51 0.72, 19.64 0 M19.64 0 C31.78 1.69, 35.65 6.44, 35.64 16 M19.64 0 C31.28 0.17, 35.99 4.92, 35.64 16 M35.64 16 C35.44 42.78, 36.13 69.22, 35.64 146.47 M35.64 16 C34.95 64.58, 34.56 111.17, 35.64 146.47 M35.64 146.47 C34.82 155.52, 29.53 160.93, 19.64 162.47 M35.64 146.47 C35.09 158.43, 28.5 164.38, 19.64 162.47 M19.64 162.47 C14.64 162.18, 7.62 163.21, 0.64 162.47 M19.64 162.47 C12.81 163.35, 5.49 161.85, 0.64 162.47" stroke="#1e1e1e" stroke-width="1" fill="none"></path></g><g transform="translate(562.51171875 261.44921875) rotate(0 17.822265625 81.23710937499999)"><path d="M16.95 156.12 C12.06 158.29, 11.82 158.88, 0.64 162.47 M16.95 156.12 C10.95 157.76, 5.36 161.28, 0.64 162.47" stroke="#1e1e1e" stroke-width="1" fill="none"></path></g><g transform="translate(562.51171875 261.44921875) rotate(0 17.822265625 81.23710937499999)"><path d="M17.22 168.09 C12.34 167.85, 12.05 166.02, 0.64 162.47 M17.22 168.09 C11.24 165.72, 5.57 165.22, 0.64 162.47" stroke="#1e1e1e" stroke-width="1" fill="none"></path></g></g><mask id="mask-rI57TmBgXKzY10Uo5Rwqk"><rect x="0" y="0" fill="#fff" width="698.15625" height="523.9234375"></rect><rect x="576.15625" y="330.18632812500005" fill="#000" width="44" height="25" opacity="1"></rect></mask><g transform="translate(576.15625 330.186328125) rotate(0 4.2670597523551805 12.54695672368561)"><text x="22" y="17.5" font-family="Comic Shanns, Segoe UI Emoji" font-size="20px" fill="#1e1e1e" text-anchor="middle" style="white-space: pre;" direction="ltr" dominant-baseline="alphabetic">next</text></g><g mask="url(#mask-n3XDikn6lWKl7ow-NNIKh)" stroke-linecap="round"><g transform="translate(387.7578125 407.09921875) rotate(0 -17.822265625 -69.68437499999999)"><path d="M0 0 C-5.07 1.49, -11.52 -0.47, -19.64 0 M0 0 C-6.69 0.14, -12.91 0.58, -19.64 0 M-19.64 0 C-31.55 -1.6, -34.42 -5.93, -35.64 -16 M-19.64 0 C-30.41 -0.93, -33.93 -6.62, -35.64 -16 M-35.64 -16 C-36.31 -48.06, -36.1 -81.11, -35.64 -123.37 M-35.64 -16 C-35.58 -44.61, -34.75 -73.75, -35.64 -123.37 M-35.64 -123.37 C-37.05 -133.47, -29.95 -137.73, -19.64 -139.37 M-35.64 -123.37 C-35.73 -135.6, -31.59 -138.47, -19.64 -139.37 M-19.64 -139.37 C-13.45 -140.05, -8.26 -140.69, -0.64 -139.37 M-19.64 -139.37 C-14.02 -139.57, -10.33 -139.48, -0.64 -139.37" stroke="#1e1e1e" stroke-width="1" fill="none"></path></g><g transform="translate(387.7578125 407.09921875) rotate(0 -17.822265625 -69.68437499999999)"><path d="M-17.16 -133.58 C-10.16 -134.23, -4.44 -137.94, -0.64 -139.37 M-17.16 -133.58 C-11.96 -135.56, -6.3 -137.07, -0.64 -139.37" stroke="#1e1e1e" stroke-width="1" fill="none"></path></g><g transform="translate(387.7578125 407.09921875) rotate(0 -17.822265625 -69.68437499999999)"><path d="M-17.02 -145.55 C-10.15 -142.17, -4.47 -141.83, -0.64 -139.37 M-17.02 -145.55 C-11.78 -143.59, -6.17 -141.16, -0.64 -139.37" stroke="#1e1e1e" stroke-width="1" fill="none"></path></g></g><mask id="mask-n3XDikn6lWKl7ow-NNIKh"><rect x="0" y="0" fill="#fff" width="523.40234375" height="646.46796875"></rect><rect x="329.8132815361023" y="324.91484374999993" fill="#000" width="44.59999942779541" height="25" opacity="1"></rect></mask><g transform="translate(329.8132815361023 324.91484375) rotate(0 39.90904076281038 12.40142979920472)"><text x="22.299999713897705" y="17.5" font-family="Comic Shanns, Segoe UI Emoji" font-size="20px" fill="#1e1e1e" text-anchor="middle" style="white-space: pre;" direction="ltr" dominant-baseline="alphabetic">prev</text></g><g mask="url(#mask-wEM900bMdm1EZwIOGzRsj)" stroke-linecap="round"><g transform="translate(387.11328125 253.33749999999998) rotate(0 -17.845703125 -77.15312499999999)"><path d="M0 0 C-5.54 0.1, -9.78 0.39, -19.69 0 M0 0 C-6.12 0.34, -11.99 -0.07, -19.69 0 M-19.69 0 C-32.26 -0.32, -34.87 -4.86, -35.69 -16 M-19.69 0 C-29.58 0.1, -37.8 -4.82, -35.69 -16 M-35.69 -16 C-34.95 -45.87, -33.35 -80.33, -35.69 -138.31 M-35.69 -16 C-34.61 -61.61, -35.4 -107.39, -35.69 -138.31 M-35.69 -138.31 C-35.73 -150.89, -28.97 -156.25, -19.69 -154.31 M-35.69 -138.31 C-35.06 -148.66, -31.18 -155.72, -19.69 -154.31 M-19.69 -154.31 C-11.1 -154.41, -6.63 -153.85, -0.69 -154.31 M-19.69 -154.31 C-14.38 -154.62, -10.07 -153.27, -0.69 -154.31" stroke="#1e1e1e" stroke-width="1" fill="none"></path></g><g transform="translate(387.11328125 253.33749999999998) rotate(0 -17.845703125 -77.15312499999999)"><path d="M-16.79 -147.43 C-12.62 -149.09, -7.3 -150.69, -0.69 -154.31 M-16.79 -147.43 C-11.31 -149.64, -5.61 -152.23, -0.69 -154.31" stroke="#1e1e1e" stroke-width="1" fill="none"></path></g><g transform="translate(387.11328125 253.33749999999998) rotate(0 -17.845703125 -77.15312499999999)"><path d="M-17.44 -159.39 C-13.09 -157.8, -7.59 -156.17, -0.69 -154.31 M-17.44 -159.39 C-11.74 -157.71, -5.83 -156.42, -0.69 -154.31" stroke="#1e1e1e" stroke-width="1" fill="none"></path></g></g><mask id="mask-wEM900bMdm1EZwIOGzRsj"><rect x="0" y="0" fill="#fff" width="522.8046875" height="507.64374999999995"></rect><rect x="329.1218752861023" y="163.684375" fill="#000" width="44.59999942779541" height="25" opacity="1"></rect></mask><g transform="translate(329.1218752861023 163.684375) rotate(0 39.9788670581911 12.405909930106304)"><text x="22.299999713897705" y="17.5" font-family="Comic Shanns, Segoe UI Emoji" font-size="20px" fill="#1e1e1e" text-anchor="middle" style="white-space: pre;" direction="ltr" dominant-baseline="alphabetic">prev</text></g><g stroke-linecap="round" transform="translate(10 208.2421875) rotate(0 92.291015625 38.89453125)"><path d="M19.45 0 C72.93 2.07, 131.58 -0.95, 165.13 0 M19.45 0 C57.51 -1.8, 93.89 -1.34, 165.13 0 M165.13 0 C180.01 -1.72, 184.09 7.94, 184.58 19.45 M165.13 0 C178.41 2.21, 185.7 4.71, 184.58 19.45 M184.58 19.45 C185.68 27.93, 184.01 38.27, 184.58 58.34 M184.58 19.45 C185.46 30.26, 184.24 42.48, 184.58 58.34 M184.58 58.34 C186.31 71.46, 179.16 77.62, 165.13 77.79 M184.58 58.34 C186.61 71.18, 177.92 77.72, 165.13 77.79 M165.13 77.79 C119.03 79.37, 75.87 78.55, 19.45 77.79 M165.13 77.79 C134.94 78.39, 105.2 79.23, 19.45 77.79 M19.45 77.79 C6.54 77.14, -0.49 71.58, 0 58.34 M19.45 77.79 C6.72 78.23, 0.21 69.29, 0 58.34 M0 58.34 C-0.81 45.25, 1.81 31.95, 0 19.45 M0 58.34 C0.6 48.43, -0.53 40.44, 0 19.45 M0 19.45 C-1.42 6.17, 5.99 1.44, 19.45 0 M0 19.45 C0.16 5.23, 8.06 2.12, 19.45 0" stroke="#1e1e1e" stroke-width="1" fill="none"></path></g><g transform="translate(21.329052448272705 229.63671875) rotate(0 80.9619631767273 17.5)"><text x="80.9619631767273" y="24.668" font-family="Excalifont, Xiaolai, Segoe UI Emoji" font-size="28px" fill="#1e1e1e" text-anchor="middle" style="white-space: pre;" direction="ltr" dominant-baseline="alphabetic">pos-sentinel</text></g><g mask="url(#mask-yu06PKZllk3keGFN0ZQFK)" stroke-linecap="round"><g transform="translate(102.19101562499998 203.2421875) rotate(0 142.1154296875 -65.595703125)"><path d="M0 0 C0.85 -41.13, 0.03 -82.26, 0 -115.19 M0 0 C-0.15 -24.27, -1.01 -47.49, 0 -115.19 M0 -115.19 C0.86 -125.68, 4.58 -130.09, 16 -131.19 M0 -115.19 C2.14 -126.14, 6.17 -131.65, 16 -131.19 M16 -131.19 C90.27 -130.59, 162.01 -130.84, 284.23 -131.19 M16 -131.19 C86.71 -131.79, 158.05 -131.63, 284.23 -131.19" stroke="#1e1e1e" stroke-width="1" fill="none"></path></g><g transform="translate(102.19101562499998 203.2421875) rotate(0 142.1154296875 -65.595703125)"><path d="M260.71 -122.71 C269.69 -125.64, 277.34 -128.37, 284.23 -131.19 M260.71 -122.71 C265.76 -125.53, 269.67 -127.14, 284.23 -131.19" stroke="#1e1e1e" stroke-width="1" fill="none"></path></g><g transform="translate(102.19101562499998 203.2421875) rotate(0 142.1154296875 -65.595703125)"><path d="M260.76 -139.81 C269.67 -136.59, 277.3 -133.16, 284.23 -131.19 M260.76 -139.81 C265.87 -139.17, 269.77 -137.31, 284.23 -131.19" stroke="#1e1e1e" stroke-width="1" fill="none"></path></g></g><mask id="mask-yu06PKZllk3keGFN0ZQFK"><rect x="0" y="0" fill="#fff" width="486.421875" height="434.43359375"></rect><rect x="79.89101591110227" y="59.55078125" fill="#000" width="44.59999942779541" height="25" opacity="1"></rect></mask><g transform="translate(79.89101591110227 59.55078125) rotate(0 164.17351578918652 77.90069107109886)"><text x="22.299999713897705" y="17.5" font-family="Comic Shanns, Segoe UI Emoji" font-size="20px" fill="#1e1e1e" text-anchor="middle" style="white-space: pre;" direction="ltr" dominant-baseline="alphabetic">prev</text></g><g mask="url(#mask-Qy-hrfrtXjOTbUwH8d_7d)" stroke-linecap="round"><g transform="translate(102.19101562499998 291.03125) rotate(0 142.7833984375 74.064453125)"><path d="M0 0 C1.38 30.13, 1.45 64.96, 0 132.13 M0 0 C0.63 42.52, 1.33 84.98, 0 132.13 M0 132.13 C0.58 144.33, 7.14 147.53, 16 148.13 M0 132.13 C-0.5 143.36, 3.4 146.83, 16 148.13 M16 148.13 C113.08 147.13, 210.14 146.54, 285.57 148.13 M16 148.13 C86.21 145.51, 155.9 146.86, 285.57 148.13" stroke="#1e1e1e" stroke-width="1" fill="none"></path></g><g transform="translate(102.19101562499998 291.03125) rotate(0 142.7833984375 74.064453125)"><path d="M261.99 156.44 C268.4 152.75, 274.12 153.99, 285.57 148.13 M261.99 156.44 C269.07 153.5, 277.43 150.34, 285.57 148.13" stroke="#1e1e1e" stroke-width="1" fill="none"></path></g><g transform="translate(102.19101562499998 291.03125) rotate(0 142.7833984375 74.064453125)"><path d="M262.16 139.34 C268.61 139.74, 274.29 145.07, 285.57 148.13 M262.16 139.34 C269.34 141.95, 277.64 144.35, 285.57 148.13" stroke="#1e1e1e" stroke-width="1" fill="none"></path></g></g><mask id="mask-Qy-hrfrtXjOTbUwH8d_7d"><rect x="0" y="0" fill="#fff" width="487.7578125" height="539.16015625"></rect><rect x="80.19101562499998" y="426.66015625" fill="#000" width="44" height="25" opacity="1"></rect></mask><g transform="translate(80.19101562499998 426.66015625) rotate(0 164.76235076890708 -61.564453125)"><text x="22" y="17.5" font-family="Comic Shanns, Segoe UI Emoji" font-size="20px" fill="#1e1e1e" text-anchor="middle" style="white-space: pre;" direction="ltr" dominant-baseline="alphabetic">next</text></g><g mask="url(#mask-ldm0BHZEgkooyk0Xdgs8w)" stroke-linecap="round"><g transform="translate(386.421875 89.20859375) rotate(0 -116.1953125 57.016796875)"><path d="M0 0 C-82.65 -0.8, -165.01 2.01, -216.39 0 M0 0 C-78.2 1.26, -155.58 1.95, -216.39 0 M-216.39 0 C-227.51 -0.56, -232.85 6.92, -232.39 16 M-216.39 0 C-225.26 -1.81, -230.47 4.94, -232.39 16 M-232.39 16 C-230.68 41.9, -230.49 69.44, -232.39 114.03 M-232.39 16 C-232.83 39.06, -231.29 61.94, -232.39 114.03" stroke="#1e1e1e" stroke-width="1" fill="none"></path></g><g transform="translate(386.421875 89.20859375) rotate(0 -116.1953125 57.016796875)"><path d="M-240.7 90.46 C-238.69 98.02, -236.33 110.14, -232.39 114.03 M-240.7 90.46 C-237.86 98.97, -234.01 108.27, -232.39 114.03" stroke="#1e1e1e" stroke-width="1" fill="none"></path></g><g transform="translate(386.421875 89.20859375) rotate(0 -116.1953125 57.016796875)"><path d="M-223.6 90.63 C-228.04 98.16, -232.14 110.21, -232.39 114.03 M-223.6 90.63 C-226.94 99.19, -229.25 108.43, -232.39 114.03" stroke="#1e1e1e" stroke-width="1" fill="none"></path></g></g><mask id="mask-ldm0BHZEgkooyk0Xdgs8w"><rect x="0" y="0" fill="#fff" width="718.8125" height="303.2421875"></rect><rect x="131.7312502861023" y="76.70859375" fill="#000" width="44.59999942779541" height="25" opacity="1"></rect></mask><g transform="translate(131.7312502861023 76.70859375) rotate(0 138.45470093725925 69.37073862482734)"><text x="22.299999713897705" y="17.5" font-family="Comic Shanns, Segoe UI Emoji" font-size="20px" fill="#1e1e1e" text-anchor="middle" style="white-space: pre;" direction="ltr" dominant-baseline="alphabetic">prev</text></g><g mask="url(#mask-zRyx-VIF21edgSQNNTgOS)" stroke-linecap="round"><g transform="translate(387.7578125 418.31796875) rotate(0 -116.2890625 -63.64335937499999)"><path d="M0 0 C-77.49 0.9, -155.27 -0.75, -216.58 0 M0 0 C-68.65 -0.81, -135.45 -1.17, -216.58 0 M-216.58 0 C-226.49 0.11, -233.77 -6.11, -232.58 -16 M-216.58 0 C-227.54 0.27, -232.37 -5.2, -232.58 -16 M-232.58 -16 C-232.37 -40.23, -232.52 -61.78, -232.58 -127.29 M-232.58 -16 C-232.12 -59.73, -233.35 -102.73, -232.58 -127.29" stroke="#1e1e1e" stroke-width="1" fill="none"></path></g><g transform="translate(387.7578125 418.31796875) rotate(0 -116.2890625 -63.64335937499999)"><path d="M-224.25 -103.71 C-227.51 -110.74, -231.3 -121.02, -232.58 -127.29 M-224.25 -103.71 C-227.61 -111.45, -228.96 -119.25, -232.58 -127.29" stroke="#1e1e1e" stroke-width="1" fill="none"></path></g><g transform="translate(387.7578125 418.31796875) rotate(0 -116.2890625 -63.64335937499999)"><path d="M-241.35 -103.88 C-238.53 -110.82, -236.23 -121.04, -232.58 -127.29 M-241.35 -103.88 C-239.35 -111.51, -235.34 -119.26, -232.58 -127.29" stroke="#1e1e1e" stroke-width="1" fill="none"></path></g></g><mask id="mask-zRyx-VIF21edgSQNNTgOS"><rect x="0" y="0" fill="#fff" width="720.3359375" height="645.6046875"></rect><rect x="133.1796875" y="405.81796875" fill="#000" width="44" height="25" opacity="1"></rect></mask><g transform="translate(133.1796875 405.81796875) rotate(0 138.1591242589626 -51.004571929969444)"><text x="22" y="17.5" font-family="Comic Shanns, Segoe UI Emoji" font-size="20px" fill="#1e1e1e" text-anchor="middle" style="white-space: pre;" direction="ltr" dominant-baseline="alphabetic">next</text></g></svg>